<?xml version="1.0" standalone="no"?>
<svg viewBox="0 0 200 200" xmlns="http://www.w3.org/2000/svg">
  <path fill="#FF0066" d="M40.7,-70.2C54.2,-62.6,67.6,-54.7,71.5,-42.9C75.5,-31.2,70,-15.6,65.9,-2.3C61.9,10.9,59.3,21.8,54.7,32.6C50.2,43.3,43.7,53.9,34.2,64.6C24.8,75.4,12.4,86.4,1.2,84.2C-9.9,82.1,-19.9,66.9,-29.7,56.3C-39.5,45.8,-49.1,39.9,-53.5,31.2C-57.9,22.6,-57.1,11.3,-55.4,1C-53.6,-9.3,-51,-18.6,-46.7,-27.3C-42.3,-36,-36.2,-44,-28.1,-54.7C-20,-65.4,-10,-78.7,1.8,-81.8C13.6,-84.9,27.1,-77.7,40.7,-70.2Z" transform="translate(100 100)" />
</svg>
